<svg width="579" height="108" viewBox="0 0 579 108" fill="none" xmlns="http://www.w3.org/2000/svg">
<path fill-rule="evenodd" clip-rule="evenodd" d="M93.2105 13.9076L107.118 0L81.4081 61.5162L61.7597 81.1646L0 107.118L14.5028 92.6153L16.9524 95.0649L18.636 93.3813L16.1864 90.9317L27.3402 79.7779L33.9988 86.4365L35.6824 84.7529L29.0238 78.0943L40.1775 66.9406L42.6271 69.3902L44.3107 67.7066L41.8611 65.257L53.0149 54.1032L59.6735 60.7618L61.3571 59.0782L54.6985 52.4196L65.8522 41.2659L68.3019 43.7155L69.9855 42.0319L67.5359 39.5822L78.6896 28.4285L85.3482 35.0871L87.0318 33.4035L80.3732 26.7449L91.527 15.5911L93.9766 18.0408L95.6602 16.3572L93.2105 13.9076ZM83.5227 81.5845V62.6469L107.393 5.53153V105.455L83.5227 81.5845ZM81.8348 83.2724L105.706 107.143H6.10199L62.9056 83.2724H81.8348Z" fill="#030712"/>
<path d="M516.173 97.4015L508.58 50.7565V50.6005H519.496L525.587 88.6653H527.406L534.446 50.6005H553.193L560.233 88.6653H562.053L568.143 50.6005H578.348V50.7565L570.754 97.4015H551.611L544.413 59.1027H542.435L535.316 97.4015H516.173Z" fill="#030712"/>
<path d="M482.115 98.5712C474.416 98.5712 468.668 96.3611 464.871 91.941C461.127 87.4689 459.255 81.4888 459.255 74.0006C459.255 66.5125 461.127 60.5583 464.871 56.1382C468.668 51.6661 474.416 49.4301 482.115 49.4301C489.814 49.4301 495.562 51.6661 499.359 56.1382C503.156 60.5583 505.055 66.5125 505.055 74.0006C505.055 81.4888 503.156 87.4689 499.359 91.941C495.562 96.3611 489.814 98.5712 482.115 98.5712ZM482.115 90.537C485.859 90.537 488.575 89.133 490.263 86.3249C492.003 83.5169 492.873 79.4088 492.873 74.0006C492.873 68.5925 492.003 64.4844 490.263 61.6764C488.575 58.8683 485.859 57.4643 482.115 57.4643C478.424 57.4643 475.708 58.8683 473.968 61.6764C472.227 64.4844 471.357 68.5925 471.357 74.0006C471.357 79.4088 472.227 83.5169 473.968 86.3249C475.708 89.133 478.424 90.537 482.115 90.537Z" fill="#030712"/>
<path d="M444.487 97.4014C443.063 95.7894 442.035 93.9693 441.402 91.9413C440.77 89.8612 440.453 87.0272 440.453 83.4391V35H452.239V82.1911C452.239 86.1952 452.688 89.2892 453.584 91.4733C454.481 93.6573 455.641 95.4774 457.065 96.9334V97.4014H444.487Z" fill="#030712"/>
<path d="M394.264 97.4011V36.5598H434.764V46.076H406.287V60.8963H428.119V69.7105H406.287V97.4011H394.264Z" fill="#030712"/>
<path d="M343.284 97.4014V35H354.991V56.3725H356.889C357.997 54.2924 359.5 52.6284 361.398 51.3804C363.297 50.0803 365.88 49.4303 369.15 49.4303C374.476 49.4303 378.431 51.0944 381.015 54.4224C383.599 57.6985 384.891 62.0926 384.891 67.6047V97.4014H373.184V69.6328C373.184 66.2007 372.551 63.5747 371.286 61.7546C370.073 59.8826 368.095 58.9465 365.353 58.9465C362.084 58.9465 359.526 60.2206 357.68 62.7686C355.887 65.2647 354.991 68.3848 354.991 72.1288V97.4014H343.284Z" fill="#030712"/>
<path d="M316.174 98.5712C308.95 98.5712 303.465 96.3611 299.721 91.941C295.977 87.4689 294.105 81.4888 294.105 74.0006C294.105 66.1485 296.056 60.0903 299.958 55.8262C303.913 51.5621 309.345 49.4301 316.253 49.4301C322.371 49.4301 327.196 51.0421 330.729 54.2662C334.262 57.4903 336.372 61.9104 337.057 67.5265H325.508C325.139 64.4064 324.163 62.0144 322.581 60.3503C320.999 58.6343 318.943 57.7763 316.411 57.7763C313.036 57.7763 310.479 59.2063 308.739 62.0664C307.051 64.8744 306.207 68.8525 306.207 74.0006C306.207 79.1488 307.051 83.1528 308.739 86.0129C310.479 88.821 313.01 90.225 316.332 90.225C318.916 90.225 320.999 89.367 322.581 87.6509C324.163 85.9349 325.139 83.5429 325.508 80.4748H337.057C336.319 86.0389 334.157 90.459 330.571 93.7351C327.038 96.9592 322.239 98.5712 316.174 98.5712Z" fill="#030712"/>
<path d="M246.526 97.4012V50.6001H257.284V57.6203H259.182C260.132 55.2282 261.608 53.2782 263.612 51.7701C265.669 50.2101 268.569 49.4301 272.313 49.4301C277.692 49.4301 281.674 51.0941 284.258 54.4222C286.842 57.6983 288.134 62.0924 288.134 67.6045V97.4012H276.427V69.6325C276.427 66.2005 275.794 63.5744 274.528 61.7544C273.315 59.8823 271.338 58.9463 268.596 58.9463C265.326 58.9463 262.768 60.2203 260.923 62.7684C259.13 65.2644 258.233 68.3845 258.233 72.1286V97.4012H246.526Z" fill="#030712"/>
<path d="M218.871 98.5712C211.541 98.5712 205.951 96.3611 202.102 91.941C198.252 87.4689 196.327 81.4628 196.327 73.9226C196.327 68.8785 197.171 64.5364 198.858 60.8963C200.599 57.2563 203.13 54.4482 206.452 52.4722C209.827 50.4441 213.914 49.4301 218.713 49.4301C225.674 49.4301 230.974 51.5361 234.612 55.7482C238.304 59.9083 240.15 66.0445 240.15 74.1566V76.7307H207.718C207.982 80.8908 209.063 84.1929 210.961 86.6369C212.859 89.029 215.496 90.225 218.871 90.225C221.508 90.225 223.617 89.471 225.199 87.963C226.781 86.4549 227.862 84.6089 228.443 82.4248H239.596C239.069 85.3889 237.988 88.093 236.353 90.537C234.718 92.9291 232.45 94.8791 229.55 96.3871C226.702 97.8432 223.143 98.5712 218.871 98.5712ZM207.797 69.3205H228.759C228.548 65.5244 227.572 62.5864 225.832 60.5063C224.145 58.4263 221.745 57.3863 218.634 57.3863C215.523 57.3863 213.044 58.4003 211.198 60.4283C209.353 62.4044 208.219 65.3684 207.797 69.3205Z" fill="#030712"/>
<path d="M145 97.4011V36.5598H168.414C176.008 36.5598 181.492 37.9378 184.867 40.6938C188.295 43.3979 190.009 47.064 190.009 51.6921C190.009 54.6562 189.271 57.1262 187.794 59.1023C186.318 61.0263 184.076 62.4043 181.07 63.2364V65.1084C185.026 65.9404 188.031 67.5265 190.088 69.8665C192.198 72.1546 193.252 75.4046 193.252 79.6167C193.252 84.9728 191.459 89.2889 187.873 92.565C184.287 95.7891 178.46 97.4011 170.392 97.4011H145ZM156.628 88.6649H169.047C173.266 88.6649 176.324 87.8329 178.223 86.1689C180.121 84.4528 181.07 82.1128 181.07 79.1487C181.07 75.9766 180.042 73.6106 177.986 72.0506C175.982 70.4905 173.028 69.7105 169.126 69.7105H156.628V88.6649ZM156.628 61.1303H167.702C171.025 61.1303 173.582 60.5063 175.375 59.2583C177.221 57.9582 178.144 55.9562 178.144 53.2521C178.144 47.948 174.663 45.296 167.702 45.296H156.628V61.1303Z" fill="#030712"/>
</svg>
