<svg width="580" height="108" viewBox="0 0 580 108" fill="none" xmlns="http://www.w3.org/2000/svg">
<path fill-rule="evenodd" clip-rule="evenodd" d="M94.0676 14.0504L107.975 0.142822L82.2652 61.659L62.6168 81.3074L0.857117 107.261L15.3599 92.7581L17.8096 95.2077L19.4932 93.5241L17.0435 91.0745L28.1973 79.9207L34.8559 86.5794L36.5395 84.8957L29.8809 78.2372L41.0346 67.0834L43.4843 69.533L45.1679 67.8494L42.7182 65.3998L53.872 54.2461L60.5306 60.9046L62.2142 59.221L55.5556 52.5624L66.7093 41.4087L69.159 43.8583L70.8426 42.1747L68.393 39.7251L79.5467 28.5713L86.2053 35.2299L87.8889 33.5463L81.2303 26.8877L92.3841 15.734L94.8337 18.1836L96.5173 16.5L94.0676 14.0504ZM84.3798 81.7273V62.7897L108.251 5.67435V105.598L84.3798 81.7273ZM82.6919 83.4152L106.563 107.286H6.95911L63.7627 83.4152H82.6919Z" fill="white"/>
<path d="M517.031 97.5443L509.437 50.8993V50.7433H520.353L526.444 88.8081H528.263L535.303 50.7433H554.05L561.09 88.8081H562.91L569.001 50.7433H579.205V50.8993L571.611 97.5443H552.468L545.27 59.2455H543.292L536.173 97.5443H517.031Z" fill="white"/>
<path d="M482.972 98.714C475.273 98.714 469.525 96.5039 465.728 92.0838C461.984 87.6117 460.112 81.6316 460.112 74.1434C460.112 66.6553 461.984 60.7011 465.728 56.281C469.525 51.8089 475.273 49.5729 482.972 49.5729C490.671 49.5729 496.42 51.8089 500.216 56.281C504.013 60.7011 505.912 66.6553 505.912 74.1434C505.912 81.6316 504.013 87.6117 500.216 92.0838C496.42 96.5039 490.671 98.714 482.972 98.714ZM482.972 90.6798C486.716 90.6798 489.432 89.2758 491.12 86.4677C492.86 83.6596 493.73 79.5516 493.73 74.1434C493.73 68.7353 492.86 64.6272 491.12 61.8191C489.432 59.0111 486.716 57.6071 482.972 57.6071C479.281 57.6071 476.565 59.0111 474.825 61.8191C473.084 64.6272 472.214 68.7353 472.214 74.1434C472.214 79.5516 473.084 83.6596 474.825 86.4677C476.565 89.2758 479.281 90.6798 482.972 90.6798Z" fill="white"/>
<path d="M445.344 97.5442C443.921 95.9322 442.892 94.1122 442.259 92.0841C441.627 90.0041 441.31 87.17 441.31 83.5819V35.1428H453.096V82.3339C453.096 86.338 453.545 89.4321 454.441 91.6161C455.338 93.8002 456.498 95.6202 457.922 97.0762V97.5442H445.344Z" fill="white"/>
<path d="M395.121 97.5439V36.7025H435.621V46.2187H407.144V61.0391H428.976V69.8533H407.144V97.5439H395.121Z" fill="white"/>
<path d="M344.141 97.5442V35.1428H355.848V56.5153H357.746C358.854 54.4353 360.357 52.7712 362.255 51.5232C364.154 50.2232 366.738 49.5732 370.007 49.5732C375.333 49.5732 379.288 51.2372 381.872 54.5653C384.456 57.8413 385.748 62.2354 385.748 67.7476V97.5442H374.041V69.7756C374.041 66.3435 373.409 63.7175 372.143 61.8974C370.93 60.0254 368.952 59.0894 366.21 59.0894C362.941 59.0894 360.383 60.3634 358.537 62.9115C356.744 65.4075 355.848 68.5276 355.848 72.2717V97.5442H344.141Z" fill="white"/>
<path d="M317.031 98.714C309.807 98.714 304.322 96.5039 300.578 92.0838C296.834 87.6117 294.962 81.6316 294.962 74.1434C294.962 66.2913 296.913 60.2331 300.815 55.969C304.771 51.7049 310.202 49.5729 317.11 49.5729C323.228 49.5729 328.053 51.1849 331.586 54.409C335.119 57.6331 337.229 62.0532 337.914 67.6693H326.365C325.996 64.5492 325.021 62.1572 323.439 60.4931C321.857 58.7771 319.8 57.9191 317.269 57.9191C313.894 57.9191 311.336 59.3491 309.596 62.2092C307.908 65.0172 307.065 68.9953 307.065 74.1434C307.065 79.2915 307.908 83.2956 309.596 86.1557C311.336 88.9638 313.867 90.3678 317.19 90.3678C319.774 90.3678 321.857 89.5098 323.439 87.7937C325.021 86.0777 325.996 83.6856 326.365 80.6176H337.914C337.176 86.1817 335.014 90.6018 331.428 93.8779C327.895 97.1019 323.096 98.714 317.031 98.714Z" fill="white"/>
<path d="M247.383 97.544V50.7429H258.141V57.7631H260.039C260.989 55.371 262.465 53.421 264.469 51.9129C266.526 50.3529 269.426 49.5729 273.17 49.5729C278.549 49.5729 282.531 51.2369 285.115 54.565C287.699 57.8411 288.991 62.2352 288.991 67.7473V97.544H277.284V69.7753C277.284 66.3433 276.651 63.7172 275.385 61.8972C274.172 60.0251 272.195 59.0891 269.453 59.0891C266.183 59.0891 263.625 60.3631 261.78 62.9112C259.987 65.4072 259.09 68.5273 259.09 72.2714V97.544H247.383Z" fill="white"/>
<path d="M219.728 98.714C212.398 98.714 206.808 96.5039 202.959 92.0838C199.109 87.6117 197.184 81.6056 197.184 74.0654C197.184 69.0213 198.028 64.6792 199.716 61.0391C201.456 57.3991 203.987 54.591 207.309 52.6149C210.684 50.5869 214.771 49.5729 219.57 49.5729C226.531 49.5729 231.831 51.6789 235.47 55.891C239.161 60.0511 241.007 66.1873 241.007 74.2994V76.8735H208.575C208.839 81.0336 209.92 84.3357 211.818 86.7797C213.717 89.1718 216.353 90.3678 219.728 90.3678C222.365 90.3678 224.475 89.6138 226.057 88.1057C227.639 86.5977 228.72 84.7517 229.3 82.5676H240.453C239.926 85.5317 238.845 88.2358 237.21 90.6798C235.575 93.0719 233.308 95.0219 230.407 96.5299C227.559 97.986 224 98.714 219.728 98.714ZM208.654 69.4633H229.616C229.405 65.6672 228.43 62.7292 226.689 60.6491C225.002 58.5691 222.602 57.5291 219.491 57.5291C216.38 57.5291 213.901 58.5431 212.055 60.5711C210.21 62.5472 209.076 65.5112 208.654 69.4633Z" fill="white"/>
<path d="M145.857 97.5439V36.7025H169.271C176.865 36.7025 182.349 38.0805 185.725 40.8366C189.152 43.5407 190.866 47.2068 190.866 51.8349C190.866 54.7989 190.128 57.269 188.651 59.245C187.175 61.1691 184.933 62.5471 181.928 63.3791V65.2512C185.883 66.0832 188.889 67.6692 190.945 70.0093C193.055 72.2973 194.109 75.5474 194.109 79.7595C194.109 85.1156 192.316 89.4317 188.73 92.7078C185.144 95.9319 179.317 97.5439 171.249 97.5439H145.857ZM157.485 88.8077H169.904C174.123 88.8077 177.181 87.9757 179.08 86.3116C180.978 84.5956 181.928 82.2555 181.928 79.2915C181.928 76.1194 180.899 73.7534 178.843 72.1933C176.839 70.6333 173.886 69.8533 169.983 69.8533H157.485V88.8077ZM157.485 61.2731H168.559C171.882 61.2731 174.439 60.6491 176.232 59.401C178.078 58.101 179.001 56.099 179.001 53.3949C179.001 48.0908 175.52 45.4387 168.559 45.4387H157.485V61.2731Z" fill="white"/>
</svg>
